<?xml version="1.0" standalone="no"?>
<!DOCTYPE svg PUBLIC "-//W3C//DTD SVG 20010904//EN"
 "http://www.w3.org/TR/2001/REC-SVG-20010904/DTD/svg10.dtd">
<svg version="1.0" xmlns="http://www.w3.org/2000/svg"
 width="1024.000000pt" height="1024.000000pt" viewBox="0 0 1024.000000 1024.000000"
 preserveAspectRatio="xMidYMid meet">

<g transform="translate(0.000000,1024.000000) scale(0.100000,-0.100000)"
fill="#000000" stroke="none">
<path d="M4523 5803 c-41 -23 -55 -43 -33 -43 15 0 90 51 90 61 0 13 -10 10
-57 -18z"/>
<path d="M4107 5677 c-136 -71 -137 -72 -116 -89 20 -17 22 -17 58 11 20 16
79 56 131 90 52 33 88 61 80 61 -8 0 -77 -33 -153 -73z"/>
<path d="M4205 5605 c-71 -41 -134 -76 -140 -78 -6 -3 -3 -12 7 -22 15 -16 19
-16 36 -4 11 8 68 47 128 88 126 85 133 91 114 91 -8 0 -73 -34 -145 -75z"/>
<path d="M3653 5640 c-73 -15 -232 -108 -305 -178 -119 -115 -134 -309 -39
-506 58 -119 139 -204 249 -258 78 -40 92 -43 161 -42 63 0 86 5 136 30 85 42
88 44 76 58 -6 7 -6 17 0 26 7 12 10 11 15 -7 8 -31 20 -29 84 15 109 74 163
180 161 320 -1 136 -42 245 -133 359 -112 138 -272 211 -405 183z m-117 -122
c-29 -59 -31 -69 -31 -178 0 -63 3 -133 7 -155 4 -22 4 -32 2 -22 -15 51 -55
-23 -61 -113 -4 -55 -1 -71 18 -100 l22 -35 12 62 c11 59 28 93 46 93 5 0 2
-14 -7 -32 -9 -17 -18 -59 -19 -91 -3 -58 -1 -62 37 -101 l39 -41 -7 57 c-5
44 -3 62 11 80 16 23 16 23 10 -14 -4 -20 -1 -61 6 -92 10 -47 18 -60 46 -77
19 -12 36 -19 39 -16 3 3 0 23 -6 46 -8 29 -8 47 0 61 15 27 23 25 16 -4 -7
-29 18 -106 41 -123 9 -7 29 -13 45 -13 l28 0 -17 35 c-12 25 -14 38 -6 46 7
7 13 2 17 -18 4 -15 17 -38 28 -50 l20 -21 -22 -7 c-12 -4 -38 -4 -58 0 -20 4
-75 7 -122 6 -47 0 -92 4 -100 9 -10 7 8 10 55 10 l70 1 -36 19 c-20 10 -67
26 -105 34 -38 9 -79 18 -92 21 -13 3 -20 10 -17 14 3 5 37 1 76 -9 l71 -19
-27 29 c-29 31 -105 70 -173 91 -23 7 -42 16 -42 21 0 14 22 9 78 -17 28 -13
52 -20 52 -16 0 27 -64 90 -123 121 -37 19 -67 38 -67 43 0 15 28 6 71 -22 24
-17 45 -29 46 -27 2 2 -6 24 -17 49 -20 45 -82 107 -107 107 -7 0 -13 7 -13
15 0 21 8 19 46 -10 18 -14 35 -25 38 -25 4 0 3 19 0 43 -5 31 -17 53 -47 85
-41 42 -33 61 9 22 l21 -21 7 42 c5 31 3 46 -9 59 -21 23 -21 47 0 30 19 -15
17 -17 45 45 17 39 24 46 29 32 5 -15 12 -12 46 24 22 22 56 49 75 59 19 11
35 19 36 20 0 0 -13 -28 -30 -62z m341 -3 c181 -91 294 -367 213 -525 -73
-142 -237 -145 -374 -6 -119 119 -170 307 -120 441 14 38 57 87 88 101 52 22
135 18 193 -11z"/>
<path d="M3455 5489 c-57 -53 -85 -101 -85 -148 0 -24 3 -22 29 20 16 25 45
59 64 75 33 28 75 104 57 104 -4 0 -34 -23 -65 -51z"/>
<path d="M3458 5413 c-49 -53 -88 -131 -88 -178 0 -62 15 -64 35 -4 10 28 30
66 46 84 19 21 31 49 35 79 4 25 5 46 2 46 -2 0 -16 -12 -30 -27z"/>
<path d="M3452 5285 c-12 -14 -30 -55 -42 -90 -18 -53 -19 -70 -10 -104 6 -22
14 -42 18 -45 5 -3 14 22 20 54 7 33 23 72 36 87 20 23 22 32 14 71 -4 25 -10
47 -12 49 -2 2 -13 -8 -24 -22z"/>
<path d="M3704 5492 c-49 -23 -79 -69 -95 -141 -29 -139 66 -332 201 -405 45
-25 60 -28 117 -24 61 4 68 7 103 45 73 77 75 198 6 338 -78 159 -221 239
-332 187z m141 -26 c41 -18 45 -44 15 -93 -25 -41 -44 -42 -60 -3 -7 16 -30
45 -51 64 -22 21 -33 37 -26 40 25 10 89 5 122 -8z m-62 -110 c16 -31 34 -56
42 -56 14 0 65 55 65 70 0 5 5 21 10 35 9 23 13 25 25 15 21 -18 19 -51 -9
-113 l-24 -54 22 -25 c11 -14 40 -30 62 -37 48 -13 94 -46 94 -67 0 -18 -5
-18 -34 1 -27 18 -127 37 -138 26 -4 -4 1 -30 12 -59 11 -29 20 -75 20 -102 0
-43 -3 -50 -20 -50 -17 0 -20 7 -20 45 0 49 -20 108 -48 138 -29 33 -53 36
-111 15 -44 -17 -55 -18 -62 -7 -17 28 -8 38 51 60 l60 22 -5 49 c-5 56 -31
105 -77 143 -25 21 -28 28 -18 40 11 14 17 12 44 -8 17 -13 44 -50 59 -81z
m-90 17 c28 -30 57 -91 57 -121 0 -14 -15 -26 -52 -41 -28 -12 -54 -19 -57
-15 -3 3 -7 38 -9 77 -4 69 8 127 26 127 4 0 20 -12 35 -27z m311 -56 c25 -44
51 -116 44 -122 -5 -6 -109 33 -124 46 -9 7 -5 25 14 69 14 32 30 56 34 54 4
-3 19 -24 32 -47z m-176 -219 c24 -40 45 -115 38 -134 -5 -12 -13 -11 -46 6
-40 21 -120 94 -120 111 0 11 70 48 92 49 9 0 25 -15 36 -32z m178 13 c50 -23
53 -28 43 -66 -9 -32 -64 -95 -83 -95 -6 0 -12 21 -13 50 -2 28 -9 66 -17 84
-22 52 -1 59 70 27z"/>
<path d="M3851 5286 c-9 -10 -9 -16 -1 -21 17 -10 37 12 24 25 -8 8 -15 6 -23
-4z"/>
<path d="M3790 5271 c0 -12 5 -21 10 -21 6 0 10 6 10 14 0 8 -4 18 -10 21 -5
3 -10 -3 -10 -14z"/>
<path d="M3815 5250 c-3 -6 -3 -19 0 -30 5 -15 3 -18 -9 -14 -10 4 -16 1 -16
-9 0 -21 20 -33 30 -18 5 9 10 8 20 -4 16 -19 25 -19 44 0 18 18 11 43 -18 67
-24 20 -42 23 -51 8z"/>
<path d="M880 5624 c0 -3 86 -181 192 -395 l192 -389 153 2 154 3 199 385
c110 212 200 388 200 393 0 4 -56 7 -125 7 l-125 0 -152 -302 -151 -303 -148
303 -148 302 -121 0 c-66 0 -120 -3 -120 -6z"/>
<path d="M2920 5235 l0 -395 108 0 109 0 6 98 c9 125 9 401 0 565 l-6 127
-109 0 -108 0 0 -395z"/>
<path d="M5168 5623 c-2 -5 -2 -183 0 -396 l2 -388 113 3 112 3 3 108 3 107
283 0 c222 0 293 3 333 15 106 32 144 90 151 235 6 127 -9 196 -54 249 -59 69
-77 71 -540 71 -222 0 -404 -3 -406 -7z m752 -193 c16 -16 20 -33 20 -85 0
-108 7 -105 -288 -105 -137 0 -251 2 -253 4 -2 2 -3 50 -1 105 l3 101 250 0
c236 0 250 -1 269 -20z"/>
<path d="M7997 5603 c-4 -3 -7 -37 -7 -75 l0 -68 -55 0 -55 0 0 -80 0 -80 55
0 55 0 0 -138 c0 -200 18 -250 110 -298 29 -15 63 -19 188 -22 l152 -4 0 81 0
81 -89 0 c-133 0 -136 4 -136 167 l0 128 113 3 112 3 0 79 0 80 -115 0 -115 0
0 75 0 75 -103 0 c-57 0 -107 -3 -110 -7z"/>
<path d="M2098 5450 c-52 -15 -99 -52 -121 -94 -20 -38 -22 -55 -22 -206 0
-151 2 -168 22 -207 52 -96 84 -103 476 -103 l319 0 -4 76 -3 75 -265 0 c-296
-1 -313 2 -318 57 l-3 32 305 0 306 0 0 103 c0 122 -11 166 -51 212 -51 57
-96 65 -373 64 -133 0 -253 -4 -268 -9z m453 -160 c13 -8 19 -21 19 -45 l0
-35 -195 0 -195 0 0 33 c0 18 5 38 12 45 15 15 330 17 359 2z"/>
<path d="M4290 5380 l0 -80 196 0 c108 0 194 -4 192 -9 -1 -5 -92 -75 -200
-156 l-198 -147 0 -74 0 -74 375 0 375 0 0 80 0 80 -212 0 -211 0 206 155 207
155 0 75 0 75 -365 0 -365 0 0 -80z"/>
<path d="M6298 5380 l4 -80 263 0 c226 0 266 -2 279 -16 9 -8 16 -24 16 -34 0
-17 -14 -19 -242 -22 -231 -3 -245 -4 -286 -26 -98 -52 -114 -235 -27 -311 55
-48 90 -53 378 -49 258 3 263 3 307 28 31 17 52 39 68 70 22 43 23 54 20 215
-3 190 -12 218 -77 262 -58 39 -96 43 -406 43 l-300 0 3 -80z m562 -324 c0
-56 -15 -61 -191 -64 -175 -4 -199 2 -199 46 0 50 10 52 207 52 l183 0 0 -34z"/>
<path d="M7375 5442 c-68 -24 -109 -54 -131 -99 -17 -33 -19 -67 -22 -270 l-3
-233 115 0 116 0 0 208 c0 114 4 213 8 220 15 23 76 32 219 32 l143 0 0 80 0
80 -197 0 c-161 -1 -207 -4 -248 -18z"/>
<path d="M8647 5448 c-85 -23 -135 -110 -122 -209 9 -64 40 -109 95 -136 42
-22 56 -23 265 -23 159 0 224 -3 233 -12 18 -18 14 -56 -7 -68 -12 -6 -124
-10 -295 -10 l-276 0 0 -75 0 -76 343 3 c324 3 344 4 382 24 23 12 50 37 63
60 19 33 22 51 20 116 -4 90 -20 119 -89 158 -43 24 -51 25 -276 28 -220 4
-233 5 -238 24 -15 46 -1 48 291 48 l274 0 0 80 0 80 -312 -1 c-175 -1 -330
-6 -351 -11z"/>
<path d="M3195 4700 c-14 -26 -14 -34 -1 -65 19 -45 71 -69 135 -62 32 4 52 0
75 -14 38 -23 102 -24 156 -3 50 20 40 43 -11 25 -50 -17 -113 -14 -141 8 -20
16 -35 19 -79 14 -48 -5 -59 -2 -83 18 -28 25 -34 49 -22 87 11 33 -11 27 -29
-8z"/>
<path d="M3016 4544 c-25 -25 -20 -70 13 -106 28 -32 32 -33 103 -33 56 1 83
6 116 24 24 12 42 24 40 27 -3 2 -34 -3 -71 -12 -75 -19 -122 -14 -162 18 -23
18 -26 27 -22 60 6 43 5 44 -17 22z"/>
</g>
</svg>
